<?xml version="1.0" standalone="no"?>
<!DOCTYPE svg PUBLIC "-//W3C//DTD SVG 20010904//EN"
 "http://www.w3.org/TR/2001/REC-SVG-20010904/DTD/svg10.dtd">
<svg version="1.0" xmlns="http://www.w3.org/2000/svg"
 width="964.000000pt" height="964.000000pt" viewBox="0 0 964.000000 964.000000"
 preserveAspectRatio="xMidYMid meet">
<!-- Fundo esmeralda -->
<rect width="964" height="964" fill="#10B981"/>
<!-- Silhueta transparente (branca) -->
<g transform="translate(0.000000,964.000000) scale(0.100000,-0.100000)"
fill="#FFFFFF" stroke="none">
<path d="M0 4820 l0 -4820 4820 0 4820 0 0 4820 0 4820 -4820 0 -4820 0 0
-4820z m4430 3991 c58 -10 134 -26 169 -35 79 -20 201 -44 221 -44 25 1 153
-33 184 -49 16 -9 44 -17 62 -18 17 -2 45 -10 60 -18 16 -8 58 -20 94 -26 36
-7 92 -23 125 -36 153 -60 215 -68 337 -41 35 8 93 16 130 19 65 4 67 4 104
-32 21 -20 34 -29 29 -21 -5 9 -5 12 1 7 5 -5 9 -12 10 -15 5 -37 79 -101 123
-107 16 -2 38 -8 49 -14 55 -29 254 -76 367 -86 135 -12 209 -24 344 -56 46
-11 95 -18 107 -15 13 4 25 2 28 -3 7 -11 72 -20 211 -32 130 -10 287 -31 405
-53 47 -9 155 -27 240 -41 203 -33 293 -75 325 -152 27 -64 12 -113 -39 -135
-40 -17 -167 -14 -321 8 -66 9 -133 16 -149 16 -16 -1 -36 3 -43 9 -10 9 -13
8 -13 -2 0 -12 -2 -12 -9 0 -11 17 -110 28 -120 13 -4 -6 -17 -8 -31 -5 -21 6
-21 7 -6 13 10 3 -43 14 -118 24 -76 9 -183 26 -239 37 -56 11 -116 19 -134
17 -18 -2 -34 1 -37 7 -4 11 -104 29 -226 40 -83 8 -101 11 -180 30 -97 24
-197 44 -217 44 -10 0 -49 7 -88 15 -81 18 -340 22 -350 6 -3 -5 -13 -10 -21
-10 -9 0 -46 -17 -82 -37 -37 -21 -69 -38 -72 -38 -22 -3 -80 -28 -80 -36 0
-5 -7 -9 -15 -9 -9 0 -34 -12 -56 -26 -23 -14 -62 -35 -87 -45 -26 -11 -49
-23 -52 -27 -3 -4 -30 -20 -60 -36 -30 -16 -62 -35 -71 -42 -8 -8 -19 -14 -23
-14 -4 0 -46 -25 -94 -56 -165 -108 -363 -279 -378 -328 -4 -11 -13 -26 -20
-34 -20 -19 -18 -30 11 -56 37 -34 68 -37 169 -15 125 28 224 39 341 40 116 1
142 -7 199 -61 108 -103 134 -129 174 -174 23 -27 42 -54 42 -61 0 -6 10 -21
23 -33 35 -33 151 -270 186 -379 43 -136 45 -283 4 -325 -15 -14 -34 -21 -62
-21 -53 0 -103 35 -192 133 -96 106 -128 115 -356 107 -92 -4 -186 -11 -208
-17 -64 -17 -69 -18 -81 -19 -23 -2 -15 -85 15 -148 32 -67 147 -246 161 -251
5 -2 7 -9 4 -16 -3 -7 9 -26 26 -42 17 -16 51 -54 74 -84 67 -85 216 -245 227
-242 5 1 9 -4 9 -10 0 -14 172 -184 265 -263 62 -52 131 -81 208 -86 43 -3
145 9 162 19 5 3 18 7 30 8 104 13 135 21 135 34 0 4 17 11 38 15 20 3 75 17
122 30 47 13 132 33 190 44 101 20 180 37 265 61 96 25 287 40 538 40 174 0
257 3 257 11 0 5 4 8 8 5 7 -4 45 23 102 71 60 51 81 63 110 63 42 0 67 -15
114 -67 22 -24 76 -71 120 -105 80 -61 254 -158 283 -158 8 0 21 -7 29 -15 8
-8 34 -19 57 -25 23 -5 83 -30 132 -55 50 -25 106 -48 125 -51 30 -6 187 -73
242 -104 10 -6 26 -10 35 -10 10 0 46 -18 81 -40 34 -22 66 -40 70 -40 4 -1
17 -9 30 -20 28 -23 38 -71 23 -108 -11 -27 -95 -92 -119 -92 -6 0 -12 -4 -12
-10 0 -5 -11 -10 -24 -10 -14 0 -62 -14 -108 -31 -95 -35 -247 -69 -328 -72
-92 -5 -422 -38 -475 -48 -95 -17 -546 -36 -1340 -55 -148 -3 -273 -8 -277
-11 -5 -2 -8 -11 -8 -19 0 -8 4 -13 9 -10 4 3 6 -6 3 -20 -3 -15 7 -48 27 -88
17 -35 31 -68 31 -74 0 -5 11 -34 24 -63 13 -30 34 -96 46 -147 13 -51 29
-100 37 -108 8 -8 30 -14 49 -14 66 0 279 22 359 37 133 24 244 42 370 58 66
9 181 33 255 54 152 44 218 58 305 66 33 3 87 10 120 16 33 7 114 13 180 14
101 2 126 0 157 -16 21 -11 44 -19 52 -19 8 0 26 -14 40 -31 25 -30 26 -34 26
-179 0 -163 -15 -491 -30 -666 -9 -96 -24 -197 -44 -294 -3 -14 -11 -54 -18
-90 -6 -36 -18 -74 -25 -85 -7 -11 -13 -26 -13 -35 -1 -8 -21 -31 -45 -50 -69
-54 -141 -71 -216 -50 -32 9 -46 19 -85 62 -12 14 -3 70 15 92 6 7 7 17 3 21
-4 5 -1 5 6 1 27 -16 162 147 162 196 0 7 9 42 21 78 51 164 69 310 50 424 -7
40 -17 57 -54 93 -43 41 -147 103 -173 103 -6 0 -33 12 -58 26 -55 31 -90 30
-256 -10 -58 -14 -117 -26 -132 -26 -16 0 -28 -3 -28 -7 0 -5 -17 -9 -37 -9
-41 -2 -126 -20 -158 -34 -57 -25 -154 -50 -205 -52 -8 0 -20 -5 -27 -10 -7
-5 -17 -7 -22 -4 -5 4 -12 2 -16 -4 -7 -11 1 -13 167 -40 160 -26 368 -49 385
-43 7 3 13 1 13 -5 0 -5 12 -13 28 -17 15 -3 35 -14 46 -23 10 -9 21 -17 25
-17 3 0 5 -3 4 -7 -2 -4 4 -23 13 -44 18 -44 15 -71 -27 -193 -16 -47 -30 -88
-31 -91 0 -3 -8 -20 -15 -39 -8 -19 -24 -64 -35 -100 -11 -36 -33 -93 -49
-127 -16 -33 -29 -71 -29 -82 0 -12 -4 -22 -9 -22 -5 0 -21 -39 -35 -87 -34
-111 -73 -190 -137 -276 -56 -77 -91 -102 -164 -118 -45 -10 -57 -9 -110 12
-77 31 -103 70 -84 124 18 49 46 72 107 88 65 16 162 99 197 168 58 112 89
319 66 432 -7 31 -17 57 -22 57 -6 0 -7 5 -4 10 3 6 1 10 -4 10 -6 0 -11 6
-11 13 0 20 -38 51 -95 78 -47 22 -60 23 -240 22 -104 -1 -212 -6 -240 -12
-27 -6 -70 -14 -95 -17 -25 -3 -48 -11 -52 -17 -4 -6 -10 -8 -13 -5 -4 4 -19
2 -34 -3 -49 -19 -206 -50 -276 -55 -38 -2 -115 -10 -170 -16 -55 -7 -161 -11
-235 -9 -170 3 -190 4 -190 14 0 4 -13 7 -29 7 -41 0 -76 15 -152 65 -81 53
-139 81 -199 94 -57 13 -238 14 -293 1 -23 -5 -141 -14 -262 -20 -121 -6 -344
-17 -495 -25 -432 -21 -495 -45 -690 -264 -36 -40 -67 -78 -69 -84 -2 -7 -12
-21 -21 -32 -25 -28 -90 -125 -90 -135 0 -4 -6 -10 -14 -13 -7 -3 -33 -39 -57
-81 -24 -42 -63 -106 -86 -143 -24 -37 -43 -75 -43 -85 0 -10 -3 -18 -8 -18
-11 0 -32 -53 -39 -97 -8 -53 -43 -119 -96 -180 -25 -29 -50 -67 -55 -85 -6
-18 -13 -179 -15 -358 -3 -179 -10 -352 -17 -385 -6 -33 -16 -85 -21 -115 -14
-71 -62 -144 -110 -166 -32 -14 -45 -15 -88 -4 -27 6 -56 19 -63 27 -13 17
-21 153 -9 153 8 0 36 71 33 83 -1 4 2 7 7 7 13 0 48 107 61 189 7 41 13 135
14 210 1 147 -13 221 -61 312 -38 73 -47 160 -29 259 5 28 26 71 54 113 43 64
76 141 117 272 21 66 46 139 56 161 14 32 59 205 59 228 0 10 -45 14 -66 6
-13 -5 -51 -36 -84 -70 -34 -33 -65 -60 -69 -60 -3 0 -51 -43 -106 -95 -55
-52 -103 -95 -106 -95 -4 0 -80 -72 -170 -160 -90 -88 -173 -169 -184 -179
-11 -10 -28 -31 -37 -47 -26 -44 -42 -67 -56 -82 -46 -50 -126 -212 -104 -212
4 0 2 -4 -5 -8 -24 -15 -71 -253 -88 -440 -8 -100 -13 -186 -11 -191 3 -5 -3
-40 -14 -78 -10 -38 -26 -104 -35 -146 -30 -147 -103 -283 -160 -301 -108 -32
-187 56 -140 157 15 33 36 68 46 77 40 37 88 158 105 270 18 115 33 270 28
300 -2 19 -7 60 -10 90 -5 53 -46 183 -64 205 -9 11 -8 142 1 175 2 8 14 24
26 35 13 11 23 26 23 32 0 7 6 16 13 20 22 13 157 174 157 186 0 13 28 56 98
157 23 33 45 74 49 90 3 16 12 35 19 41 8 6 14 15 14 20 0 5 14 38 30 74 17
36 30 68 30 72 0 3 11 29 24 57 44 94 56 172 81 537 6 73 4 87 -10 99 -15 13
-20 12 -35 -8 -10 -12 -23 -22 -29 -22 -6 0 -15 -8 -20 -19 -6 -10 -31 -28
-56 -40 -25 -12 -48 -28 -51 -36 -4 -8 -12 -15 -18 -15 -7 0 -22 -9 -34 -20
-12 -11 -26 -20 -32 -20 -5 0 -10 -4 -10 -10 0 -5 -9 -10 -21 -10 -12 0 -58
-18 -102 -40 -88 -42 -162 -62 -297 -79 -47 -6 -128 -22 -180 -36 -52 -14
-132 -32 -177 -42 -45 -9 -80 -19 -78 -23 2 -3 -11 -5 -28 -3 -37 3 -127 -17
-127 -29 0 -4 -6 -5 -14 -2 -7 3 -50 -13 -95 -35 -44 -22 -81 -37 -81 -35 0 8
-40 -16 -104 -62 -91 -65 -107 -77 -130 -99 -12 -12 -34 -29 -51 -39 -30 -19
-145 -114 -156 -129 -3 -4 -26 -9 -50 -10 l-44 -2 -3 39 c-4 40 30 148 55 178
8 9 20 36 27 60 8 23 22 57 32 73 64 105 102 162 127 190 15 18 27 36 27 40 0
4 36 43 81 86 82 81 231 182 284 194 17 3 55 17 85 30 30 13 100 34 155 47 95
22 118 23 445 23 263 0 352 3 375 13 26 12 131 85 145 102 3 3 19 14 35 24 17
11 54 40 84 65 30 25 55 44 56 41 2 -3 31 18 66 45 35 28 72 53 82 57 9 4 17
12 17 18 0 5 6 10 13 10 7 0 32 16 54 35 23 19 46 35 51 35 5 0 38 21 73 47
35 27 78 57 96 68 17 11 67 44 110 72 172 116 200 135 262 176 35 23 85 55
110 70 25 16 50 34 56 41 10 13 111 76 121 76 3 0 33 18 66 41 34 22 78 49 97
60 40 22 53 29 131 79 30 19 78 46 105 60 28 13 55 29 61 34 6 6 26 22 45 35
52 36 81 78 95 138 15 64 43 436 59 778 3 55 7 120 9 145 2 25 7 83 11 130 11
149 36 374 45 410 5 19 21 96 36 170 24 124 49 229 72 305 5 17 10 35 11 40 5
20 83 170 98 187 8 9 12 22 7 29 -4 7 -3 10 2 6 6 -3 20 16 32 43 13 27 52 79
87 115 36 36 65 69 65 74 0 10 109 101 120 101 5 0 11 8 14 18 4 10 23 28 44
40 21 11 68 43 104 69 65 47 167 117 278 189 30 20 63 46 74 58 10 11 20 20
22 19 2 -2 3 0 2 5 -2 4 -9 6 -15 6 -7 -1 -11 2 -8 6 8 14 -293 20 -919 20
-459 0 -632 3 -642 11 -17 14 -19 114 -4 209 15 96 70 261 97 291 13 14 23 29
23 35 0 11 61 61 92 74 37 16 358 4 478 -19z"/>
<path d="M4675 6880 c3 -5 0 -7 -8 -4 -26 10 -50 -56 -45 -125 5 -75 27 -103
82 -103 60 0 109 73 91 134 -7 22 -35 89 -41 97 -7 9 -84 10 -79 1z"/>
<path d="M4863 5638 c-38 -47 -46 -84 -47 -203 -1 -221 28 -294 133 -344 52
-24 65 -26 196 -25 136 0 211 12 293 46 32 13 38 15 55 17 8 0 20 12 27 25 17
32 -2 75 -57 130 -50 49 -69 64 -183 138 -52 34 -128 84 -168 111 -47 31 -81
47 -93 44 -10 -3 -17 -1 -14 3 6 9 -75 57 -110 66 -12 3 -26 -1 -32 -8z"/>
<path d="M7429 5286 c-2 -3 -16 -7 -31 -10 -14 -2 -35 -9 -46 -15 -12 -6 -30
-11 -42 -11 -11 0 -49 -13 -83 -29 -34 -15 -91 -41 -127 -56 -61 -25 -129 -57
-172 -80 -10 -5 -18 -16 -18 -24 0 -8 -3 -11 -6 -8 -14 13 -134 -86 -134 -110
0 -7 -5 -12 -12 -11 -7 2 -12 -1 -13 -7 0 -5 -4 -16 -9 -23 -4 -7 -6 -15 -4
-17 19 -19 167 -28 505 -32 344 -3 386 -2 415 13 57 29 78 59 78 113 0 26 -5
52 -12 59 -7 7 -8 12 -2 12 5 0 -10 9 -32 20 -64 32 -120 85 -139 132 -19 50
-59 88 -90 88 -12 0 -24 -2 -26 -4z"/>
</g>
</svg>